<svg class="icon" style="width: 1em; height: 1em;vertical-align: middle;fill: currentColor;overflow: hidden;" viewBox="0 0 1024 1024" version="1.1" xmlns="http://www.w3.org/2000/svg" p-id="2756"><path d="M508.033 951.552c-245.481 0-444.391-198.935-444.391-444.416 0-245.427 198.91-444.416 444.391-444.416 245.427 0 444.416 198.989 444.416 444.416 0 245.481-198.989 444.416-444.416 444.416z m97.434-284.432l17.765-15.57s4.478-40.741 12.206-55.525c17.306-33.173 35.534-88.889 35.534-88.889s17.77-12.912 17.77-35.534c0-22.594-17.77-35.588-17.77-35.588s6.702-62.93 6.702-106.655c0-91.845-57.668-142.216-161.34-142.216-103.563 0-179.187 42.803-179.187 142.216 0 43.725 13.888 106.655 13.888 106.655s-17.823 12.993-17.823 35.588c0 22.622 17.823 35.534 17.823 35.534s20.724 64.503 35.534 88.89c8.651 14.24 12.23 55.525 12.23 55.525l17.77 15.569s8.408 90.164-17.77 106.655c-23.653 14.891-124.745 34.557-149.32 48.933 1.49 1.546 109.586 94.748 261.672 94.748 152.093 0 260.43-93.554 260.43-95.29-26.257-14.296-124.993-33.69-148.349-48.392-26.203-16.491-17.765-106.654-17.765-106.654z" fill="" p-id="2757"></path></svg>